# Blender v2.79 (sub 0) OBJ File: ''
# www.blender.org
mtllib prop_poison_vial.mtl
o poison_vial
v 0.777520 0.223247 -0.060725
v 0.540405 3.325216 -0.060724
v 0.382124 3.325216 -0.442848
v 0.549790 0.223247 -0.610515
v -0.000000 3.325216 -0.601129
v -0.000000 0.223247 -0.838245
v -0.382124 3.325216 -0.442848
v -0.549790 0.223247 -0.610515
v -0.540405 3.325216 -0.060724
v -0.777520 0.223247 -0.060725
v -0.382124 3.325216 0.321399
v -0.549790 0.223247 0.489065
v 0.000000 3.325216 0.479680
v 0.000000 0.223247 0.716796
v 0.382124 3.325216 0.321399
v 0.549790 0.223247 0.489065
v 0.000000 0.000000 0.493502
v 0.391897 0.000000 0.331173
v 0.554226 0.000000 -0.060725
v 0.391897 0.000000 -0.452622
v -0.417204 4.512154 0.356480
v 0.000000 4.512154 0.529291
v 0.417204 4.512154 0.356480
v 0.590016 4.512154 -0.060724
v -0.000000 0.000000 -0.614951
v -0.391897 0.000000 -0.452622
v -0.554226 0.000000 -0.060725
v -0.391897 0.000000 0.331173
v 0.806034 3.325216 -0.060724
v 0.569952 3.325216 -0.630677
v 0.569952 3.717654 -0.630677
v 0.806034 3.717654 -0.060724
v -0.000000 3.325216 -0.866759
v -0.000000 3.717654 -0.866759
v -0.569952 3.325216 -0.630677
v -0.569952 3.717654 -0.630677
v -0.806034 3.325216 -0.060724
v -0.806034 3.717654 -0.060724
v -0.569952 3.325216 0.509228
v -0.569952 3.717654 0.509228
v 0.000000 3.325216 0.745310
v 0.000000 3.717654 0.745310
v 0.569952 3.325216 0.509228
v 0.569952 3.717654 0.509228
v 0.302978 3.717654 -0.363703
v 0.428476 3.717654 -0.060724
v 0.302978 3.717654 0.242254
v 0.000000 3.717654 0.367752
v -0.302978 3.717654 0.242254
v -0.428476 3.717654 -0.060724
v -0.302978 3.717654 -0.363703
v -0.000000 3.717654 -0.489200
v 0.417204 4.512154 -0.477928
v -0.000000 4.512154 -0.650740
v -0.417204 4.512154 -0.477928
v -0.590016 4.512154 -0.060724
v -0.516387 1.869333 0.452123
v 0.000000 1.869333 0.685595
v 0.000000 2.161608 0.866760
v -0.516387 2.161609 0.712332
v 0.516387 1.869333 0.452123
v 0.516387 2.161609 0.712332
v 0.000000 2.491124 0.832013
v -0.516387 2.491124 0.677585
v 0.516387 2.491124 0.677585
v 0.000000 2.661217 0.546561
v -0.516387 2.680184 0.379805
v 0.516387 2.680184 0.379805
v -0.516387 1.581886 0.451095
v 0.000000 1.309256 0.702108
v 0.516387 1.581886 0.451095
v 0.516387 1.293707 0.540799
v -0.516387 1.293707 0.499844
v 0.641069 0.323419 -0.060725
v 0.453304 0.323419 -0.514029
v 0.315063 2.937331 -0.375787
v 0.445566 2.937331 -0.060724
v -0.000000 0.323419 -0.701793
v -0.000000 2.937331 -0.506290
v -0.453304 0.323419 -0.514029
v -0.315063 2.937331 -0.375787
v -0.641069 0.323419 -0.060725
v -0.445566 2.937331 -0.060724
v -0.453304 0.323419 0.392580
v -0.315063 2.937331 0.254338
v 0.000000 0.323419 0.580344
v 0.000000 2.937331 0.384842
v 0.453304 0.323419 0.392580
v 0.315063 2.937331 0.254338
v 0.000000 0.139352 0.396237
v 0.323121 0.139352 -0.383846
v 0.456962 0.139352 -0.060725
v 0.323121 0.139352 0.262396
v -0.000000 0.139352 -0.517687
v -0.323121 0.139352 -0.383846
v -0.456962 0.139352 -0.060725
v -0.323121 0.139352 0.262396
vt 0.099826 0.721389
vt 0.105486 0.759708
vt 0.207065 0.750797
vt 0.204229 0.708570
vt 0.308989 0.747823
vt 0.308989 0.704292
vt 0.410913 0.750797
vt 0.413749 0.708570
vt 0.512492 0.759708
vt 0.518152 0.721389
vt 0.099826 0.721389
vt 0.105486 0.759708
vt 0.207065 0.750797
vt 0.204229 0.708570
vt 0.308989 0.747823
vt 0.308989 0.704292
vt 0.410913 0.750797
vt 0.413749 0.708570
vt 0.512492 0.759708
vt 0.518152 0.721389
vt 0.143137 0.741907
vt 0.151341 0.749725
vt 0.162809 0.749837
vt 0.171164 0.742182
vt 0.861786 0.835653
vt 0.905621 0.880355
vt 0.905006 0.942960
vt 0.860303 0.986793
vt 0.165882 0.757807
vt 0.178923 0.745656
vt 0.179098 0.727794
vt 0.171272 0.731114
vt 0.166299 0.715389
vt 0.163069 0.723297
vt 0.148527 0.715215
vt 0.151601 0.723184
vt 0.135486 0.727366
vt 0.143246 0.730839
vt 0.135311 0.745228
vt 0.148111 0.757632
vt 0.595198 0.403105
vt 0.595198 0.306185
vt 0.656855 0.306184
vt 0.656855 0.403105
vt 0.595198 0.209261
vt 0.656855 0.209261
vt 0.595198 0.984612
vt 0.595198 0.887689
vt 0.656855 0.887689
vt 0.656855 0.984613
vt 0.595198 0.790769
vt 0.656855 0.790769
vt 0.595198 0.693852
vt 0.656855 0.693852
vt 0.595198 0.596937
vt 0.656855 0.596937
vt 0.595198 0.500022
vt 0.656855 0.500023
vt 0.452973 0.914659
vt 0.479866 0.942083
vt 0.470204 0.964780
vt 0.430091 0.923875
vt 0.518276 0.942460
vt 0.527492 0.965341
vt 0.545701 0.915568
vt 0.568398 0.925231
vt 0.546078 0.877159
vt 0.568960 0.867943
vt 0.519185 0.849735
vt 0.528847 0.827039
vt 0.480775 0.849359
vt 0.471559 0.826477
vt 0.453349 0.876251
vt 0.430653 0.866587
vt 0.061695 0.874143
vt 0.061396 0.904596
vt 0.028873 0.917696
vt 0.029435 0.860408
vt 0.082719 0.926341
vt 0.068985 0.958602
vt 0.113174 0.926639
vt 0.126273 0.959163
vt 0.134919 0.905317
vt 0.167179 0.919052
vt 0.135218 0.874864
vt 0.167741 0.861764
vt 0.113894 0.853119
vt 0.127629 0.820859
vt 0.083440 0.852821
vt 0.070341 0.820297
vt 0.730268 0.836634
vt 0.780308 0.824987
vt 0.761029 0.699439
vt 0.692123 0.715477
vt 0.831537 0.821083
vt 0.831572 0.694064
vt 0.882765 0.825015
vt 0.902113 0.699477
vt 0.932799 0.836690
vt 0.971010 0.715554
vt 0.882765 0.825015
vt 0.902113 0.699477
vt 0.831537 0.821083
vt 0.831572 0.694064
vt 0.780308 0.824987
vt 0.761029 0.699439
vt 0.753865 0.941476
vt 0.754479 0.878872
vt 0.799181 0.835039
vt 0.797698 0.986177
vt 0.673007 0.399781
vt 0.833078 0.420830
vt 0.833078 0.512163
vt 0.686818 0.509792
vt 0.993149 0.399781
vt 0.979339 0.509792
vt 0.833078 0.597988
vt 0.686819 0.607367
vt 0.979336 0.607367
vt 0.833078 0.677469
vt 0.673973 0.706364
vt 0.992182 0.706363
vt 0.679143 0.086479
vt 0.836062 0.006606
vt 0.836060 0.391503
vt 0.679142 0.391373
vt 0.992980 0.086480
vt 0.992980 0.391374
vt 0.988522 0.004989
vt 0.683602 0.004988
vt 0.016213 0.024841
vt 0.162352 0.012022
vt 0.207065 0.652391
vt 0.105486 0.661302
vt 0.308989 0.007744
vt 0.308989 0.649418
vt 0.455626 0.012022
vt 0.410913 0.652391
vt 0.601765 0.024841
vt 0.512492 0.661302
vt 0.016213 0.024841
vt 0.162352 0.012022
vt 0.207065 0.652391
vt 0.105486 0.661302
vt 0.308989 0.007744
vt 0.308989 0.649418
vt 0.455626 0.012022
vt 0.410913 0.652391
vt 0.601765 0.024841
vt 0.512492 0.661302
vt 0.225967 0.915917
vt 0.363856 0.917270
vt 0.322749 0.954933
vt 0.266327 0.954379
vt 0.337872 0.994142
vt 0.402033 0.934361
vt 0.364390 0.862816
vt 0.402895 0.846478
vt 0.324030 0.824354
vt 0.339920 0.785449
vt 0.267608 0.823800
vt 0.252485 0.784591
vt 0.226501 0.861463
vt 0.188324 0.844372
vt 0.187462 0.932255
vt 0.250437 0.993284
vn -0.9271 0.3524 0.1280
vn -0.6498 -0.7548 -0.0897
vn -0.5229 -0.7548 0.3961
vn -0.5650 0.3524 0.7460
vn -0.0897 -0.7548 0.6498
vn 0.1280 0.3524 0.9271
vn 0.3961 -0.7548 0.5229
vn 0.7460 0.3524 0.5650
vn 0.6498 -0.7548 0.0897
vn 0.9271 0.3524 -0.1280
vn 0.5229 -0.7548 -0.3961
vn 0.5650 0.3524 -0.7460
vn 0.0897 -0.7548 -0.6498
vn -0.1280 0.3524 -0.9271
vn -0.3961 -0.7548 -0.5229
vn -0.7460 0.3524 -0.5650
vn 0.0517 0.9259 -0.3743
vn -0.3384 0.8281 -0.4468
vn -0.4495 0.8911 -0.0621
vn -0.3012 0.9259 0.2281
vn 0.0000 1.0000 0.0000
vn -0.0517 0.9259 0.3742
vn 0.3384 0.8282 0.4468
vn 0.4495 0.8911 0.0621
vn 0.3012 0.9259 -0.2281
vn 0.9906 -0.0000 -0.1368
vn 0.6037 0.0000 -0.7972
vn 0.7972 0.0000 -0.6037
vn 0.9906 -0.0000 0.1368
vn -0.1368 0.0000 -0.9906
vn 0.1368 0.0000 -0.9906
vn -0.7972 0.0000 -0.6037
vn -0.6037 0.0000 -0.7972
vn -0.9906 0.0000 0.1368
vn -0.9906 -0.0000 -0.1368
vn -0.6037 -0.0000 0.7972
vn -0.7972 -0.0000 0.6037
vn 0.1368 0.0000 0.9906
vn -0.1368 0.0000 0.9906
vn 0.7972 -0.0000 0.6037
vn 0.6037 -0.0000 0.7972
vn -0.5229 -0.7548 0.3960
vn -0.0000 -1.0000 -0.0000
vn 0.3960 -0.7548 0.5229
vn 0.5229 -0.7548 -0.3960
vn -0.3960 -0.7548 -0.5229
vn 0.9711 -0.1974 -0.1341
vn 0.5919 -0.1974 -0.7815
vn 0.7815 -0.1974 -0.5919
vn 0.9711 -0.1974 0.1341
vn -0.1341 -0.1974 -0.9711
vn 0.1341 -0.1974 -0.9711
vn -0.7815 -0.1974 -0.5919
vn -0.5919 -0.1974 -0.7815
vn -0.9711 -0.1974 0.1341
vn -0.9711 -0.1974 -0.1341
vn -0.5919 -0.1974 0.7815
vn -0.7815 -0.1974 0.5919
vn 0.1341 -0.1974 0.9711
vn -0.1341 -0.1974 0.9711
vn 0.7815 -0.1974 0.5919
vn 0.5919 -0.1974 0.7815
vn -0.2901 -0.5739 0.7658
vn 0.0729 -0.5731 0.8162
vn -0.0084 -0.2510 0.9680
vn -0.2828 -0.1607 0.9456
vn 0.3199 -0.6300 0.7076
vn 0.3014 -0.3682 0.8796
vn -0.0278 0.5413 0.8403
vn -0.2110 0.6528 0.7275
vn 0.2654 0.3770 0.8874
vn -0.0265 0.4778 0.8781
vn -0.2490 0.5019 0.8283
vn 0.2196 0.6441 0.7327
vn -0.3533 0.1076 0.9293
vn -0.0190 0.1748 0.9844
vn -0.2491 0.5019 0.8283
vn 0.3311 0.1512 0.9314
vn 0.2937 0.2841 0.9127
vn -0.3643 0.1553 0.9182
vn 0.9268 -0.3531 -0.1280
vn 0.5648 -0.3531 -0.7458
vn 0.7317 0.3968 -0.5542
vn 0.5477 0.8333 0.0756
vn -0.1280 -0.3531 -0.9268
vn 0.0898 0.7543 -0.6504
vn -0.7458 -0.3531 -0.5648
vn -0.5542 0.3969 -0.7317
vn -0.9268 -0.3531 0.1280
vn -0.5477 0.8333 -0.0756
vn -0.5648 -0.3531 0.7458
vn -0.7317 0.3968 0.5542
vn 0.1280 -0.3531 0.9268
vn -0.0898 0.7543 0.6504
vn 0.7458 -0.3531 0.5648
vn 0.5542 0.3968 0.7317
vn -0.0517 -0.9259 0.3742
vn 0.3012 -0.9259 -0.2281
vn 0.4495 -0.8911 0.0620
vn 0.3384 -0.8281 0.4468
vn 0.0517 -0.9259 -0.3742
vn -0.3384 -0.8281 -0.4468
vn -0.4495 -0.8911 -0.0620
vn -0.3012 -0.9259 0.2281
usemtl poison
s 1
f 1/1/1 2/2/2 3/3/3
f 3/3/3 4/4/4 1/1/1
f 4/4/4 3/3/3 5/5/5
f 5/5/5 6/6/6 4/4/4
f 6/6/6 5/5/5 7/7/7
f 7/7/7 8/8/8 6/6/6
f 8/8/8 7/7/7 9/9/9
f 9/9/9 10/10/10 8/8/8
f 10/11/10 9/12/9 11/13/11
f 11/13/11 12/14/12 10/11/10
f 12/14/12 11/13/11 13/15/13
f 13/15/13 14/16/14 12/14/12
f 14/16/14 13/15/13 15/17/15
f 15/17/15 16/18/16 14/16/14
f 16/18/16 15/17/15 2/19/2
f 2/19/2 1/20/1 16/18/16
f 17/21/17 18/22/18 19/23/19
f 19/23/19 20/24/20 17/21/17
f 21/25/21 22/26/21 23/27/21
f 23/27/21 24/28/21 21/25/21
f 1/29/1 4/30/4 20/24/20
f 20/24/20 19/23/19 1/29/1
f 4/30/4 6/31/6 25/32/22
f 25/32/22 20/24/20 4/30/4
f 6/31/6 8/33/8 26/34/23
f 26/34/23 25/32/22 6/31/6
f 8/33/8 10/35/10 27/36/24
f 27/36/24 26/34/23 8/33/8
f 10/35/10 12/37/12 28/38/25
f 28/38/25 27/36/24 10/35/10
f 12/37/12 14/39/14 17/21/17
f 17/21/17 28/38/25 12/37/12
f 14/39/14 16/40/16 18/22/18
f 18/22/18 17/21/17 14/39/14
f 16/40/16 1/29/1 19/23/19
f 19/23/19 18/22/18 16/40/16
f 27/36/24 28/38/25 25/32/22
f 25/32/22 26/34/23 27/36/24
f 28/38/25 17/21/17 20/24/20
f 20/24/20 25/32/22 28/38/25
f 29/41/26 30/42/27 31/43/28
f 31/43/28 32/44/29 29/41/26
f 30/42/27 33/45/30 34/46/31
f 34/46/31 31/43/28 30/42/27
f 33/47/30 35/48/32 36/49/33
f 36/49/33 34/50/31 33/47/30
f 35/48/32 37/51/34 38/52/35
f 38/52/35 36/49/33 35/48/32
f 37/51/34 39/53/36 40/54/37
f 40/54/37 38/52/35 37/51/34
f 39/53/36 41/55/38 42/56/39
f 42/56/39 40/54/37 39/53/36
f 41/55/38 43/57/40 44/58/41
f 44/58/41 42/56/39 41/55/38
f 43/57/40 29/41/26 32/44/29
f 32/44/29 44/58/41 43/57/40
f 2/59/2 3/60/42 30/61/43
f 30/61/43 29/62/43 2/59/2
f 3/60/42 5/63/5 33/64/43
f 33/64/43 30/61/43 3/60/42
f 5/63/5 7/65/44 35/66/43
f 35/66/43 33/64/43 5/63/5
f 7/65/44 9/67/9 37/68/43
f 37/68/43 35/66/43 7/65/44
f 9/67/9 11/69/45 39/70/43
f 39/70/43 37/68/43 9/67/9
f 11/69/45 13/71/13 41/72/43
f 41/72/43 39/70/43 11/69/45
f 13/71/13 15/73/46 43/74/43
f 43/74/43 41/72/43 13/71/13
f 15/73/46 2/59/2 29/62/43
f 29/62/43 43/74/43 15/73/46
f 45/75/21 46/76/21 32/77/21
f 32/77/21 31/78/21 45/75/21
f 46/76/21 47/79/21 44/80/21
f 44/80/21 32/77/21 46/76/21
f 47/79/21 48/81/21 42/82/21
f 42/82/21 44/80/21 47/79/21
f 48/81/21 49/83/21 40/84/21
f 40/84/21 42/82/21 48/81/21
f 49/83/21 50/85/21 38/86/21
f 38/86/21 40/84/21 49/83/21
f 50/85/21 51/87/21 36/88/21
f 36/88/21 38/86/21 50/85/21
f 51/87/21 52/89/21 34/90/21
f 34/90/21 36/88/21 51/87/21
f 52/89/21 45/75/21 31/78/21
f 31/78/21 34/90/21 52/89/21
f 46/91/47 45/92/48 53/93/49
f 53/93/49 24/94/50 46/91/47
f 45/92/48 52/95/51 54/96/52
f 54/96/52 53/93/49 45/92/48
f 52/95/51 51/97/53 55/98/54
f 55/98/54 54/96/52 52/95/51
f 51/97/53 50/99/55 56/100/56
f 56/100/56 55/98/54 51/97/53
f 50/99/55 49/101/57 21/102/58
f 21/102/58 56/100/56 50/99/55
f 49/101/57 48/103/59 22/104/60
f 22/104/60 21/102/58 49/101/57
f 48/103/59 47/105/61 23/106/62
f 23/106/62 22/104/60 48/103/59
f 47/105/61 46/91/47 24/94/50
f 24/94/50 23/106/62 47/105/61
f 54/107/21 55/108/21 56/109/21
f 56/109/21 53/110/21 54/107/21
f 53/110/21 56/109/21 21/25/21
f 21/25/21 24/28/21 53/110/21
f 57/111/63 58/112/64 59/113/65
f 59/113/65 60/114/66 57/111/63
f 58/112/64 61/115/67 62/116/68
f 62/116/68 59/113/65 58/112/64
f 60/114/66 59/113/65 63/117/69
f 63/117/69 64/118/70 60/114/66
f 59/113/65 62/116/68 65/119/71
f 65/119/71 63/117/69 59/113/65
f 64/118/70 63/117/69 66/120/72
f 66/120/72 67/121/73 64/118/70
f 63/117/69 65/119/71 68/122/74
f 68/122/74 66/120/72 63/117/69
f 69/123/75 70/124/76 66/125/72
f 66/125/72 67/126/77 69/123/75
f 66/125/72 70/124/76 71/127/78
f 71/127/78 68/128/74 66/125/72
f 70/124/76 72/129/79 71/127/78
f 69/123/75 73/130/80 70/124/76
f 74/131/81 75/132/82 76/133/83
f 76/133/83 77/134/84 74/131/81
f 75/132/82 78/135/85 79/136/86
f 79/136/86 76/133/83 75/132/82
f 78/135/85 80/137/87 81/138/88
f 81/138/88 79/136/86 78/135/85
f 80/137/87 82/139/89 83/140/90
f 83/140/90 81/138/88 80/137/87
f 82/141/89 84/142/91 85/143/92
f 85/143/92 83/144/90 82/141/89
f 84/142/91 86/145/93 87/146/94
f 87/146/94 85/143/92 84/142/91
f 86/145/93 88/147/95 89/148/96
f 89/148/96 87/146/94 86/145/93
f 88/147/95 74/149/81 77/150/84
f 77/150/84 89/148/96 88/147/95
f 90/151/97 91/152/98 92/153/99
f 92/153/99 93/154/100 90/151/97
f 74/155/81 92/153/99 91/152/98
f 91/152/98 75/156/82 74/155/81
f 75/156/82 91/152/98 94/157/101
f 94/157/101 78/158/85 75/156/82
f 78/158/85 94/157/101 95/159/102
f 95/159/102 80/160/87 78/158/85
f 80/160/87 95/159/102 96/161/103
f 96/161/103 82/162/89 80/160/87
f 82/162/89 96/161/103 97/163/104
f 97/163/104 84/164/91 82/162/89
f 84/164/91 97/163/104 90/151/97
f 90/151/97 86/165/93 84/164/91
f 86/165/93 90/151/97 93/154/100
f 93/154/100 88/166/95 86/165/93
f 88/166/95 93/154/100 92/153/99
f 92/153/99 74/155/81 88/166/95
f 96/161/103 95/159/102 94/157/101
f 94/157/101 97/163/104 96/161/103
f 97/163/104 94/157/101 91/152/98
f 91/152/98 90/151/97 97/163/104
f 79/136/86 81/138/88 83/140/90
f 83/140/90 85/143/92 87/146/94
f 87/146/94 89/148/96 77/150/84
f 83/140/90 87/146/94 77/150/84
f 79/136/86 83/140/90 77/150/84
f 76/133/83 79/136/86 77/150/84
